HIERARCHY
ROOT RootJoint
{
    OFFSET   0.000000   0.000000   0.000000
    CHANNELS 6 Xposition Yposition Zposition Xrotation Yrotation Zrotation
    JOINT pelvis_lowerback
    {
        OFFSET   0.000000   0.093605   0.000000
        CHANNELS 3 Xrotation Yrotation Zrotation
        JOINT lowerback_torso
        {
            OFFSET   0.000000   0.100000   0.000000
            CHANNELS 3 Xrotation Yrotation Zrotation
            JOINT torso_head
            {
                OFFSET   0.000000   0.282350   0.000000
                CHANNELS 3 Xrotation Yrotation Zrotation
                End Site
                {
                    OFFSET   0.000000   0.192650   0.000000
                }
            }
            JOINT rTorso_Clavicle
            {
                OFFSET  -0.001000   0.157500   0.000000
                CHANNELS 3 Xrotation Yrotation Zrotation
                JOINT rShoulder
                {
                    OFFSET  -0.117647   0.000000   0.000000
                    CHANNELS 3 Xrotation Yrotation Zrotation
                    JOINT rElbow
                    {
                        OFFSET  -0.245000   0.000000   0.000000
                        CHANNELS 3 Xrotation Yrotation Zrotation
                        JOINT rWrist
                        {
                            OFFSET  -0.240000   0.000000   0.000000
                            CHANNELS 3 Xrotation Yrotation Zrotation
                            End Site
                            {
                                OFFSET  -0.116353  -0.002500   0.000000
                            }
                        }
                    }
                }
            }
            JOINT lTorso_Clavicle
            {
                OFFSET   0.001000   0.157500   0.000000
                CHANNELS 3 Xrotation Yrotation Zrotation
                JOINT lShoulder
                {
                    OFFSET   0.117647   0.000000   0.000000
                    CHANNELS 3 Xrotation Yrotation Zrotation
                    JOINT lElbow
                    {
                        OFFSET   0.245000   0.000000   0.000000
                        CHANNELS 3 Xrotation Yrotation Zrotation
                        JOINT lWrist
                        {
                            OFFSET   0.240000   0.000000   0.000000
                            CHANNELS 3 Xrotation Yrotation Zrotation
                            End Site
                            {
                                OFFSET   0.116353  -0.002500   0.000000
                            }
                        }
                    }
                }
            }
        }
    }
    JOINT rHip
    {
        OFFSET  -0.100000  -0.051395   0.000000
        CHANNELS 3 Xrotation Yrotation Zrotation
        JOINT rKnee
        {
            OFFSET   0.000000  -0.410000   0.000000
            CHANNELS 3 Xrotation Yrotation Zrotation
            JOINT rAnkle
            {
                OFFSET   0.000000  -0.390000   0.000000
                CHANNELS 3 Xrotation Yrotation Zrotation
                JOINT rToeJoint
                {
                    OFFSET   0.000000  -0.050000   0.130000
                    CHANNELS 3 Xrotation Yrotation Zrotation
                    End Site
                    {
                        OFFSET  -0.010000   0.002000   0.060000
                    }
                }
            }
        }
    }
    JOINT lHip
    {
        OFFSET   0.100000  -0.051395   0.000000
        CHANNELS 3 Xrotation Yrotation Zrotation
        JOINT lKnee
        {
            OFFSET   0.000000  -0.410000   0.000000
            CHANNELS 3 Xrotation Yrotation Zrotation
            JOINT lAnkle
            {
                OFFSET   0.000000  -0.390000   0.000000
                CHANNELS 3 Xrotation Yrotation Zrotation
                JOINT lToeJoint
                {
                    OFFSET   0.000000  -0.050000   0.130000
                    CHANNELS 3 Xrotation Yrotation Zrotation
                    End Site
                    {
                        OFFSET   0.010000   0.002000   0.060000
                    }
                }
            }
        }
    }
}
MOTION
Frames: 11
Frame Time:   0.008333
 -2.376719   0.925631   3.975860   0.000000   0.000000   0.000000   0.000000   0.000000   0.000000   0.000000   0.000000   0.000000   0.000000   0.000000   0.000000   0.000000   0.000000   0.000000   0.000000   0.000000   0.000000   0.000000   0.000000   0.000000   0.000000   0.000000   0.000000   0.000000   0.000000   0.000000   0.000000   0.000000   0.000000   0.000000   0.000000   0.000000   0.000000   0.000000   0.000000   0.000000   0.000000   0.000000   0.000000   0.000000   0.000000   0.000000   0.000000   0.000000   0.000000   0.000000   0.000000   0.000000   0.000000   0.000000   0.000000   0.000000   0.000000   0.000000   0.000000   0.000000   0.000000   0.000000   0.000000
 -2.376263   0.926248   3.973567   0.415442  -0.081376   0.284212  -0.100260   0.132548  -0.232569   0.065370  -0.342984  -0.133312  -0.429532  -0.823216   0.207929  -0.003112   0.332188   0.664287   0.673970   0.370171   1.929658   0.006065   0.275976  -0.002560   0.019780  -0.723594  -2.857464   0.375908   0.686269  -0.376788   1.692544  -0.315685  -1.816082   0.026771  -1.326939   0.028637   0.202284   0.613431   2.526818  -1.537832   0.404623  -0.678877   2.771281   0.009853   0.007302  -1.718965   0.291430   0.672826   0.011537  -0.000028   0.000061  -1.515121  -0.973685  -0.106787   2.220938  -0.003990  -0.020487  -0.626400  -0.469171  -0.131341   0.182152  -0.000077  -0.002433
 -2.375578   0.927204   3.970861   0.695066  -0.236548   0.586638  -0.049696   0.285801  -0.443565   0.260506  -0.645588  -0.253837  -0.826347  -1.636433   0.393081  -0.011728   0.839057   2.060117   1.315042   0.912268   4.456211   0.015454   0.586076  -0.005296   0.050245  -1.254036  -4.964486   0.756655   1.235852  -1.445666   3.340766  -0.776245  -4.190358   0.062563  -2.624152   0.052226   0.473502   0.821265   4.377050  -2.949238   0.830574  -1.635089   5.638224   0.025443   0.009976  -3.314147   0.547757   1.310538   0.012848  -0.000022   0.000055  -3.014684  -1.947446  -0.070053   4.480441  -0.012425  -0.038346  -1.198767  -0.921137  -0.263429   0.373157  -0.000505  -0.004588
 -2.374758   0.928074   3.968004   0.930955  -0.439990   0.869001   0.062229   0.453335  -0.610713   0.504301  -0.901600  -0.341584  -1.187202  -2.398953   0.558739  -0.044271   1.445804   3.885677   1.908634   1.585342   7.365489   0.026075   0.912864  -0.007788   0.091386  -1.549418  -6.214181   1.122827   1.638244  -2.948335   4.908506  -1.378562  -6.884982   0.098068  -3.863035   0.069693   0.750426   0.804294   5.422620  -4.227516   1.253967  -2.768660   8.349716   0.042027   0.008035  -4.802406   0.765209   1.911504   0.019231  -0.000001   0.000063  -4.488431  -2.868117   0.129206   6.584568  -0.022780  -0.050228  -1.734270  -1.340434  -0.391127   0.544799  -0.001108  -0.005958
 -2.373891   0.928548   3.965138   1.153234  -0.675641   1.130654   0.209708   0.629088  -0.743849   0.761594  -1.120261  -0.408127  -1.519884  -3.111511   0.712241  -0.109105   2.108507   5.950863   2.446652   2.363079  10.532353   0.036458   1.246196  -0.009885   0.150181  -1.655132  -6.826454   1.469852   1.921539  -4.727968   6.334902  -2.083713  -9.660328   0.128454  -5.044087   0.081384   1.031812   0.618006   5.820726  -5.387386   1.677760  -4.031234  10.885010   0.057190   0.003138  -6.193721   0.949322   2.476824   0.018422  -0.000005   0.000049  -5.930966  -3.740552   0.472154   8.521869  -0.033251  -0.056894  -2.237221  -1.728449  -0.513744   0.692279  -0.001715  -0.006628
 -2.373036   0.928395   3.962375   1.371763  -0.929955   1.374193   0.377211   0.808918  -0.851961   1.017167  -1.307624  -0.458534  -1.826954  -3.777358   0.853027  -0.209515   2.791900   8.127865   2.923260   3.220654  13.871395   0.045625   1.577675  -0.011503   0.224429  -1.626029  -7.007739   1.792984   2.119132  -6.643515   7.624435  -2.861613 -12.416562   0.151821  -6.165278   0.088326   1.312408   0.313174   5.790572  -6.435442   2.103734  -5.387351  13.253900   0.069841  -0.003271  -7.494365   1.105212   3.007804   0.011088  -0.000045   0.000031  -7.330750  -4.572069   0.935254  10.305800  -0.042748  -0.059505  -2.709384  -2.087556  -0.631019   0.819068  -0.002244  -0.006803
 -2.372188   0.927435   3.959793   1.589857  -1.188753   1.598817   0.553604   0.991625  -0.933050   1.263886  -1.465873  -0.480231  -2.110916  -4.399744   0.976731  -0.343875   3.474064  10.384557   3.312679   4.095508  17.174878   0.052950   1.903588  -0.012558   0.309942  -1.495615  -6.830056   2.090481   2.257311  -8.609249   8.784662  -3.685686 -15.099344   0.167819  -7.225866   0.091410   1.587011  -0.069741   5.483657  -7.375581   2.531132  -6.809477  15.469775   0.079695  -0.010088  -8.709891   1.237223   3.505908  -0.000772  -0.000115   0.000020  -8.678546  -5.368728   1.494049  11.952412  -0.050623  -0.059101  -3.152186  -2.420042  -0.742812   0.928708  -0.002652  -0.006645
 -2.371290   0.925114   3.957055   1.718471  -1.386550   1.832493   1.008123   1.023720  -1.028401   1.385902  -1.455274  -0.449435  -2.493633  -5.055438   0.927986  -0.455572   4.236128  12.174396   3.428307   4.714149  20.055226   0.043397   1.927975  -0.010350   0.420109  -0.987925  -5.521898   2.317239   2.213365  -9.913233   9.858802  -4.853196 -17.757783   0.168345  -8.125933   0.091226   1.734657  -0.280478   4.258451  -8.113188   2.759057  -8.190981  16.685527   0.075618  -0.014087  -8.675536   1.366363   3.765580   0.358912   0.002785  -0.000479  -9.785835  -5.906154   1.970629  13.540282  -0.054718  -0.053632  -4.364556  -2.801452  -1.036052   1.257670  -0.003977  -0.008162
 -2.370398   0.921609   3.954266   1.863369  -1.615486   2.068127   1.485641   1.023373  -1.119004   1.507368  -1.470921  -0.420591  -2.856407  -5.663589   0.872933  -0.604363   4.972619  13.662192   3.504353   5.301797  22.611406   0.035354   1.945048  -0.008478   0.507309  -0.535284  -4.329930   2.498125   2.092560 -10.945080  10.797090  -6.032730 -20.099657   0.163024  -8.986639   0.090067   1.877109  -0.541300   3.116785  -8.962759   2.997497  -9.484925  17.662317   0.069159  -0.016501  -8.638171   1.484261   4.006974   0.766545   0.005263  -0.001193 -10.745375  -6.396799   2.383271  15.032876  -0.056113  -0.048559  -5.506623  -3.151494  -1.318385   1.503934  -0.004432  -0.008567
 -2.369529   0.917043   3.951568   2.008168  -1.868446   2.296367   1.965149   0.982115  -1.202504   1.634201  -1.525075  -0.392347  -3.188412  -6.230040   0.819557  -0.775199   5.658820  14.929964   3.550561   5.852383  24.907913   0.028835   1.961569  -0.006936   0.581833  -0.114035  -3.368958   2.643980   1.938859 -11.781949  11.620433  -7.184364 -22.179779   0.154102  -9.800096   0.087903   2.016415  -0.839004   2.198992  -9.894127   3.251577 -10.676913  18.502100   0.062047  -0.017850  -8.606163   1.593402   4.232383   1.138327   0.006746  -0.001851 -11.548373  -6.857215   2.745141  16.446848  -0.055668  -0.044135  -6.573656  -3.474380  -1.588825   1.729253  -0.004561  -0.008665
 -2.368682   0.911503   3.949041   2.147896  -2.139607   2.514753   2.432168   0.899732  -1.279144   1.763082  -1.617487  -0.363682  -3.492437  -6.758463   0.767578  -0.951549   6.280041  16.030139   3.577828   6.354502  26.990463   0.023418   1.973163  -0.005637   0.644805   0.265640  -2.594059   2.763637   1.773826 -12.472474  12.346565  -8.290574 -24.044663   0.143187 -10.563913   0.084862   2.149839  -1.145174   1.469779 -10.878480   3.519616 -11.765109  19.236596   0.054908  -0.018390  -8.578230   1.694844   4.442953   1.477020   0.007491  -0.002401 -12.204108  -7.287635   3.060777  17.791873  -0.053944  -0.040298  -7.570023  -3.772486  -1.847321   1.937904  -0.004469  -0.008558
